<?xml version="1.0" encoding="UTF-8" standalone="no"?>
<svg
   xmlns:dc="http://purl.org/dc/elements/1.1/"
   xmlns:cc="http://creativecommons.org/ns#"
   xmlns:rdf="http://www.w3.org/1999/02/22-rdf-syntax-ns#"
   xmlns:svg="http://www.w3.org/2000/svg"
   xmlns="http://www.w3.org/2000/svg"
   xmlns:sodipodi="http://sodipodi.sourceforge.net/DTD/sodipodi-0.dtd"
   xmlns:inkscape="http://www.inkscape.org/namespaces/inkscape"
   version="1.1"
   width="250.00002"
   height="209.51666"
   id="svg251"
   sodipodi:docname="avatar.svg"
   inkscape:version="1.0 (4035a4fb49, 2020-05-01)">
  <metadata
     id="metadata257">
    <rdf:RDF>
      <cc:Work
         rdf:about="">
        <dc:format>image/svg+xml</dc:format>
        <dc:type
           rdf:resource="http://purl.org/dc/dcmitype/StillImage" />
        <dc:title></dc:title>
      </cc:Work>
    </rdf:RDF>
  </metadata>
  <defs
     id="defs255" />
  <sodipodi:namedview
     inkscape:pagecheckerboard="true"
     lock-margins="false"
     fit-margin-top="1.9"
     inkscape:document-rotation="0"
     pagecolor="#ffffff"
     bordercolor="#666666"
     borderopacity="1"
     objecttolerance="10"
     gridtolerance="10"
     guidetolerance="10"
     inkscape:pageopacity="0"
     inkscape:pageshadow="2"
     inkscape:window-width="1920"
     inkscape:window-height="956"
     id="namedview253"
     showgrid="false"
     inkscape:zoom="1.6727995"
     inkscape:cx="163.05715"
     inkscape:cy="60.067078"
     inkscape:window-x="0"
     inkscape:window-y="25"
     inkscape:window-maximized="1"
     inkscape:current-layer="g247" />
  <g
     transform="translate(-319.5,-204.24001)"
     id="g249">
    <g
       id="g227">
      <svg
         id="1589830119600"
         opacity="1"
         fill="#ffffff"
         viewBox="1.4400001 -50.400002 72.43 50.400002"
         width="72.43"
         preserveAspectRatio="none"
         height="50.400002"
         x="408.28"
         y="283.62"
         version="1.1">
        <path
           id="textPath"
           d="m 1.44,0 h 18.5 c 10.23,0 18.51,-8.35 18.51,-18.5 v -13.4 c 0,-10.22 -8.28,-18.5 -18.51,-18.5 H 1.44 v 3.6 h 18.5 c 8.21,0 14.91,6.7 14.91,14.9 v 13.4 c 0,8.13 -6.7,14.9 -14.91,14.9 H 5.04 v -38.16 h 1.44 v 36.72 h 13.46 c 7.42,0 13.47,-6.05 13.47,-13.46 v -13.4 c 0,-7.41 -6.05,-13.46 -13.47,-13.46 H 1.44 Z m 8.64,-8.64 v -33.12 h 9.86 c 5.48,0 9.87,4.39 9.87,9.86 v 13.4 c 0,5.4 -4.39,9.86 -9.87,9.86 z M 42.05,0 h 17.06 c 9.72,0 14.76,-6.91 14.76,-14.76 0,-4.1 -1.65,-7.78 -4.39,-10.44 2.74,-2.66 4.39,-6.41 4.39,-10.44 0,-8.21 -6.62,-14.76 -14.76,-14.76 H 42.05 v 3.6 h 17.06 c 6.12,0 11.16,4.97 11.16,11.16 0,4.75 -3.02,8.86 -7.27,10.44 4.25,1.58 7.27,5.62 7.27,10.44 0,6.12 -5.04,11.16 -11.16,11.16 H 45.65 v -38.16 h 1.44 v 36.72 h 12.02 c 5.33,0 9.72,-4.39 9.72,-9.72 0,-5.4 -4.39,-9.72 -9.72,-9.72 h -8.57 v -1.44 h 8.57 c 5.33,0 9.72,-4.39 9.72,-9.72 0,-5.4 -4.39,-9.72 -9.72,-9.72 H 42.05 Z m 8.64,-29.52 v -12.24 h 8.42 c 3.39,0 6.12,2.74 6.12,6.12 0,3.38 -2.73,6.12 -6.12,6.12 z m 0,20.88 v -12.24 h 8.42 c 3.39,0 6.12,2.74 6.12,6.12 0,5.9 -5.76,5.69 -6.12,6.12 z" />
      </svg>
    </g>
    <g
       id="g247">
      <svg
         version="1.1"
         id="Layer_1"
         x="319.5"
         y="204.24001"
         viewBox="108.35001 176.55 783.29993 646.90002"
         width="250"
         class="withFill injected-svg"
         height="209.51666"
         xml:space="preserve"
         data-src="/static/media/146.svg"
         fill="#ffffff"
         opacity="1"
         preserveAspectRatio="none"><style
           type="text/css"
           id="style3">
	.st0{fill:#231F20;}
	.st1{fill:#B9921D;}
</style><switch
           id="switch5"
           transform="translate(-42.95,35.75)"><g
             id="g7"><g
               id="g9"><g
                 id="g11"><g
                   id="g13"><path
                     class="st0"
                     d="M 779.8,696.9 H 314.6 V 231.7 H 779.8 Z M 335.4,676.1 H 759 V 252.5 H 335.4 Z"
                     id="path15-5320"
                     inkscape:connector-curvature="0"
                     style="fill:#ffffff" /></g></g><g
                 id="g17"><polygon
                   class="st1"
                   points="759,425.1 586.4,252.5 568,252.5 759,443.5 "
                   id="polygon19"
                   style="fill:#b9921d" /><polygon
                   class="st1"
                   points="798.1,464.3 779.8,445.9 779.8,482.6 "
                   id="polygon21"
                   style="fill:#b9921d" /><polygon
                   class="st1"
                   points="567.9,676.2 586.3,676.2 759,503.4 759,485 "
                   id="polygon23"
                   style="fill:#b9921d" /><polygon
                   class="st1"
                   points="547.1,697 474.7,769.3 169.6,464.3 474.7,159.2 547,231.6 565.4,231.6 474.7,140.8 151.3,464.3 474.7,787.7 565.5,697 "
                   id="polygon25"
                   style="fill:#b9921d" /></g><g
                 id="g27"><polygon
                   class="st1"
                   points="683.6,696.9 611.2,769.3 306.1,464.3 611.2,159.2 683.7,231.7 702,231.7 611.2,140.8 287.7,464.3 611.2,787.7 702,696.9 "
                   id="polygon29"
                   style="fill:#b9921d" /><polygon
                   class="st1"
                   points="704.4,676.1 722.8,676.1 759,639.9 759,621.5 "
                   id="polygon31"
                   style="fill:#b9921d" /><polygon
                   class="st1"
                   points="780.5,310.1 780.5,328.5 916.2,464.3 780.5,600.1 780.5,618.4 934.6,464.3 "
                   id="polygon33"
                   style="fill:#b9921d" /><polygon
                   class="st1"
                   points="759,288.7 722.9,252.5 704.5,252.5 759,307.1 "
                   id="polygon35"
                   style="fill:#b9921d" /></g></g></g></switch></svg>
    </g>
  </g>
</svg>
